<?xml version="1.0" encoding="iso-8859-1"?>
<!-- Generator: Adobe Illustrator 21.0.0, SVG Export Plug-In . SVG Version: 6.00 Build 0)  -->
<svg xmlns="http://www.w3.org/2000/svg" xmlns:xlink="http://www.w3.org/1999/xlink" version="1.1" id="Capa_1" x="0px" y="0px" viewBox="0 0 512 512" style="enable-background:new 0 0 512 512;" xml:space="preserve" width="512" height="512">
<g>
	<path d="M404.566,333.173L256.004,0l-148.57,333.2l148.492-63.09L404.566,333.173z M166.152,275.51l89.852-201.513l89.865,201.538   l-89.952-38.164L166.152,275.51z"/>
	<path d="M256.005,326.043c-51.269,0-92.979,41.71-92.979,92.979S204.737,512,256.005,512s92.979-41.71,92.979-92.979   S307.274,326.043,256.005,326.043z M256.005,481.865c-34.652,0-62.844-28.192-62.844-62.844s28.192-62.844,62.844-62.844   s62.844,28.192,62.844,62.844S290.658,481.865,256.005,481.865z"/>
</g>















</svg>
